PathFileType	4	(X/Y/Z)	./resultDataOpenSim/trcMotMarkerGrf/sub09/qtm-14-02.trc
DataRate	CameraRate	NumFrames	NumMarkers	Units	OrigDataRate	OrigDataStartFrame	OrigNumFrames
250.000000	250.000000	7	24	m	250.000000	249	496
Frame#	Time	L.Toe.Tip			R.Toe.Tip			L.Ankle.Lat			R.Ankle.Lat			L.Ankle.Med			R.Ankle.Med			L.Heel			R.Heel			L.Knee.Lat			R.Knee.Lat			L.Knee.Med			R.Knee.Med			L.Thigh.Upper			R.Thigh.Upper			L.ASIS			R.ASIS			V.Sacral			L.Acromium			R.Acromium			C7			L.Elbow			R.Elbow			L.Wrist.Lat			R.Wrist.Lat
		X1	Y1	Z1	X2	Y2	Z2	X3	Y3	Z3	X4	Y4	Z4	X5	Y5	Z5	X6	Y6	Z6	X7	Y7	Z7	X8	Y8	Z8	X9	Y9	Z9	X10	Y10	Z10	X11	Y11	Z11	X12	Y12	Z12	X13	Y13	Z13	X14	Y14	Z14	X15	Y15	Z15	X16	Y16	Z16	X17	Y17	Z17	X18	Y18	Z18	X19	Y19	Z19	X20	Y20	Z20	X21	Y21	Z21	X22	Y22	Z22	X23	Y23	Z23	X24	Y24	Z24

249	0.992	0.15078256	-0.034265076	0.041127549	0.53353187	0.16644741	0.10040182	0.017266815	0.026836551	-0.030014951	0.38781128	0.18177995	0.12204421	0.028648008	0.049183884	0.066856371	0.41315472	0.2189053	0.031053615	-0.062302733	0.0060954045	0.0084977901	0.32254783	0.15896063	0.066957794	0.14465956	0.42533831	-0.084820175	0.51849971	0.60016723	0.18374914	0.13003963	0.43132812	0.039036536	0.5219468	0.59716883	0.058767925	0.2007068	0.84377658	-0.14398819	0.20939327	0.85727571	0.22891792	0.29248815	0.92689844	-0.083294144	0.28104049	0.94017362	0.15661414	0.12532352	0.99075062	0.031614833	0.32989178	1.374274	-0.12300466	0.27879936	1.3954721	0.20191401	0.24030169	1.4381883	0.027442004	0.2193515	1.0198173	-0.21091806	0.10103203	1.07747	0.28159502	0.44312979	0.86725833	-0.23308357	0.22659476	0.83816329	0.33789495
250	0.996	0.15093985	-0.034262381	0.041085468	0.55336888	0.16663754	0.099463019	0.0177785	0.027899929	-0.030052693	0.40709084	0.17783273	0.12050916	0.029463535	0.050146943	0.066720815	0.43176774	0.21569558	0.029693279	-0.061795391	0.0077235475	0.0085459977	0.34278279	0.15314509	0.065202969	0.14629375	0.42606602	-0.085068504	0.52509925	0.60125386	0.18322439	0.13215288	0.43197931	0.038760655	0.52813288	0.59766708	0.0583082	0.20570396	0.84393786	-0.14388851	0.21541512	0.8576389	0.22913741	0.2980216	0.92663042	-0.083498537	0.28734385	0.94016237	0.15661797	0.13080332	0.99102873	0.03148643	0.33656064	1.3741614	-0.12315323	0.2861554	1.3953685	0.20181548	0.24738633	1.438188	0.02743748	0.22687915	1.0192055	-0.21103368	0.10754892	1.07819	0.28207673	0.45263826	0.86922907	-0.23254233	0.23071004	0.83769013	0.33890634
251	1	0.15109658	-0.034263249	0.041037429	0.57302762	0.16681569	0.098696263	0.018321854	0.028941073	-0.03011949	0.42634913	0.17406266	0.11890588	0.030268907	0.051101376	0.066565536	0.45046327	0.21260603	0.028232479	-0.061275789	0.0093486078	0.0085268076	0.36307322	0.14759475	0.063207584	0.14783978	0.42675854	-0.085202539	0.53151743	0.60206506	0.18272517	0.13438559	0.43262409	0.038395834	0.5343487	0.59783987	0.057754457	0.21061785	0.84407914	-0.14388711	0.22141939	0.85793053	0.22938867	0.30349792	0.92632962	-0.083669316	0.29367584	0.94009333	0.15661328	0.13606942	0.99129516	0.031061858	0.34329426	1.3740013	-0.12328535	0.29349284	1.3952151	0.20170862	0.25449456	1.4381521	0.027415455	0.2344012	1.0185539	-0.21116523	0.11412695	1.0788355	0.28251392	0.46208545	0.87116997	-0.23197456	0.23488006	0.83720411	0.33990602
252	1.004	0.1512467	-0.034270003	0.040992738	0.59250967	0.16700753	0.098083949	0.018874582	0.029964384	-0.0301943	0.44552268	0.17045318	0.11722869	0.031047938	0.052059879	0.066417223	0.46919598	0.20964912	0.026704973	-0.060752846	0.010962279	0.0084614932	0.38340532	0.14230577	0.061013866	0.14938078	0.42741447	-0.085290639	0.53776347	0.60258637	0.18227595	0.13672431	0.43320598	0.038040155	0.54057272	0.5976815	0.05714651	0.21527045	0.84419712	-0.14384794	0.22741538	0.85815435	0.22966235	0.3088898	0.92598521	-0.083845773	0.3000306	0.93997219	0.15658754	0.14129166	0.99153394	0.030618477	0.35008252	1.3737946	-0.12340217	0.30082462	1.3950124	0.20159459	0.2616158	1.4380653	0.027390473	0.24190706	1.0178531	-0.21130179	0.12084771	1.0793863	0.28281	0.47146379	0.87308231	-0.23138546	0.23910151	0.83671001	0.3408863
253	1.008	0.15138979	-0.034279692	0.040957051	0.61181632	0.16722857	0.097590345	0.019416262	0.030974224	-0.030256195	0.46455766	0.16699671	0.11547683	0.031809798	0.053013027	0.066279427	0.48791672	0.20683373	0.025143583	-0.060225453	0.012557609	0.0083700277	0.40376329	0.13726885	0.05868248	0.15106719	0.42802827	-0.08545132	0.54386591	0.60282905	0.18190052	0.13913113	0.43367685	0.037784783	0.54666253	0.59719417	0.056590757	0.2196275	0.84429623	-0.14369099	0.23342303	0.85831747	0.22994935	0.31415643	0.92558228	-0.084058751	0.30637549	0.93978883	0.15651693	0.14659944	0.99167895	0.030453876	0.35691156	1.3735367	-0.12350866	0.3081696	1.394759	0.20148046	0.26874134	1.4379069	0.027375177	0.24938725	1.0171037	-0.21143292	0.12771749	1.0798415	0.28297047	0.48076785	0.87496247	-0.23077875	0.24337344	0.83621176	0.34184219
254	1.012	0.15153051	-0.034286075	0.040927574	0.63094628	0.1674587	0.097126656	0.019951331	0.031972401	-0.030307068	0.48342881	0.16371414	0.11370072	0.032575199	0.05394734	0.066139922	0.50657267	0.2041714	0.023573539	-0.059687927	0.014130337	0.0082606597	0.4241271	0.13248919	0.056268433	0.15296042	0.42859293	-0.085733985	0.54982009	0.60280617	0.18157179	0.14156414	0.43405204	0.037622662	0.552502	0.5964004	0.056164873	0.22377024	0.84438163	-0.14342075	0.23946925	0.85843045	0.23024846	0.31927795	0.92512267	-0.084295099	0.31265529	0.93952661	0.15636516	0.15197689	0.99169911	0.030609163	0.36377459	1.373224	-0.12361377	0.31553586	1.394453	0.20136929	0.27587371	1.4376781	0.027368854	0.25683947	1.0163252	-0.21155043	0.13469463	1.0802073	0.28303918	0.49000215	0.87680675	-0.23015568	0.24769654	0.83571088	0.34277361
255	1.016	0.15167301	-0.034286949	0.040896388	0.64990011	0.16765928	0.096555838	0.02051649	0.032943843	-0.030376399	0.50213833	0.16063918	0.11198269	0.033355044	0.054860822	0.065985857	0.52510689	0.20167721	0.022011307	-0.05913015	0.015684984	0.0081272198	0.44446753	0.12798735	0.05380912	0.15500446	0.42911253	-0.086095528	0.55557276	0.60252819	0.18120902	0.14399955	0.43439904	0.037465945	0.55810115	0.59533363	0.055851387	0.22778308	0.84445532	-0.14305917	0.24558106	0.85849739	0.23055969	0.32428015	0.92462594	-0.084519356	0.31883455	0.93918073	0.1561028	0.15739231	0.99165992	0.030920131	0.37067396	1.3728555	-0.12372541	0.32291937	1.3940939	0.20125857	0.28302533	1.4374022	0.027362022	0.26426705	1.0155432	-0.21165548	0.14171667	1.0804866	0.28304361	0.49918175	0.87861824	-0.22951649	0.25207504	0.8352067	0.34368427
